Coordinates
version=1
nRows=24
nColumns=24
inDegrees=yes

Units are S.I. units (second, meters, Newtons, ...)
Angles are in degrees.

endheader
time	pelvis_tilt	pelvis_list	pelvis_rotation	pelvis_tx	pelvis_ty	pelvis_tz	hip_flexion_r	hip_adduction_r	hip_rotation_r	knee_angle_r	ankle_angle_r	subtalar_angle_r	mtp_angle_r	hip_flexion_l	hip_adduction_l	hip_rotation_l	knee_angle_l	ankle_angle_l	subtalar_angle_l	mtp_angle_l	lumbar_extension	lumbar_bending	lumbar_rotation
      5.37000000	     -3.66411735	      0.14283605	     -1.26995881	      1.24683789	      1.03254079	     -0.25728813	     -0.87085931	      4.46265316	     13.31075928	     -6.73724395	     13.45012585	    -17.51705509	      0.00000000	     29.48181350	     -4.67233067	    -15.39604290	    -51.44110450	      6.60720334	     -4.40037310	      0.00000000	     -8.07239263	     -2.09136231	      2.43406084
      5.37500000	     -3.79157653	      0.17971987	     -1.32934718	      1.25276537	      1.03219767	     -0.25752342	     -1.23994841	      4.38044554	     13.30788885	     -6.42845202	     13.43255698	    -17.56746011	      0.00000000	     29.78715370	     -4.53196787	    -15.45585809	    -49.95042262	      6.97021062	     -4.03633109	      0.00000000	     -7.96751714	     -2.15483268	      2.59375343
      5.38000000	     -3.81660852	      0.25752089	     -1.51199242	      1.25875431	      1.03196907	     -0.25761806	     -1.72144351	      4.24755848	     13.56801649	     -6.12535359	     13.38175662	    -17.74647052	      0.00000000	     29.91018672	     -4.40460831	    -15.66404714	    -48.35910561	      7.29987019	     -3.75342063	      0.00000000	     -7.97381981	     -2.28130957	      2.89984496
      5.38500000	     -3.94351949	      0.25484591	     -1.56025954	      1.26473155	      1.03151608	     -0.25788990	     -2.07085192	      4.21115392	     13.54933368	     -5.86631299	     13.36715873	    -17.80259912	      0.00000000	     30.15948081	     -4.28801188	    -15.68791663	    -46.75804178	      7.61169860	     -3.41034330	      0.00000000	     -7.86369626	     -2.29879212	      3.05504623
      5.39000000	     -3.95104063	      0.31322971	     -1.72871100	      1.27077984	      1.03120537	     -0.25807614	     -2.55469645	      4.09202183	     13.81278431	     -5.60640002	     13.33949906	    -17.96879532	      0.00000000	     30.20455077	     -4.15593584	    -15.86481304	    -45.04931882	      7.88805419	     -3.15011373	      0.00000000	     -7.88914182	     -2.38667352	      3.32940632
      5.39500000	     -4.07453332	      0.27533661	     -1.76840290	      1.27680189	      1.03064691	     -0.25840902	     -2.88819591	      4.09229438	     13.79287042	     -5.39651522	     13.33900928	    -18.01943900	      0.00000000	     30.39295480	     -4.05291826	    -15.84195348	    -43.34071891	      8.15763040	     -2.80612524	      0.00000000	     -7.78376401	     -2.35508044	      3.48081175
      5.40000000	     -4.11267576	      0.28660516	     -1.88220112	      1.28296838	      1.03018224	     -0.25870958	     -3.33177250	      4.01982771	     13.95309110	     -5.16875726	     13.35484386	    -18.08598768	      0.00000000	     30.42150061	     -3.92896741	    -15.93622673	    -41.54021769	      8.39527459	     -2.50417860	      0.00000000	     -7.75602815	     -2.37447294	      3.66569538
      5.40500000	     -4.20720092	      0.23072821	     -1.93582124	      1.28899589	      1.02956335	     -0.25907753	     -3.66737737	      4.03717805	     13.96279251	     -5.02245403	     13.38256377	    -18.14113932	      0.00000000	     30.51385508	     -3.82361745	    -15.86369026	    -39.71612009	      8.61992253	     -2.15782079	      0.00000000	     -7.69728599	     -2.32056736	      3.85755419
      5.41000000	     -4.12245488	      0.23277917	     -2.06278605	      1.29523783	      1.02919287	     -0.25939619	     -4.22976597	      3.96504658	     14.12404176	     -4.82681600	     13.40119267	    -18.19673295	      0.00000000	     30.33527955	     -3.68754468	    -15.92964538	    -37.78843316	      8.79847955	     -1.86507950	      0.00000000	     -7.81532460	     -2.33814566	      4.07005865
      5.41500000	     -4.23420796	      0.13333941	     -2.08700644	      1.30135840	      1.02844661	     -0.25987049	     -4.54483636	      4.02181085	     14.12932687	     -4.70553751	     13.44216356	    -18.20696311	      0.00000000	     30.39420302	     -3.59569867	    -15.77399988	    -35.88636555	      8.97603461	     -1.45442122	      0.00000000	     -7.73095750	     -2.21336919	      4.20317368
      5.42000000	     -4.13203666	      0.10392305	     -2.17003894	      1.30767967	      1.02800946	     -0.26030078	     -5.11360261	      3.97973777	     14.19219097	     -4.54637750	     13.49362055	    -18.17581684	      0.00000000	     30.14442997	     -3.44744756	    -15.72566729	    -33.87498941	      9.08967166	     -1.10235016	      0.00000000	     -7.86918145	     -2.18582266	      4.37556024
      5.42500000	     -4.21231785	     -0.00917601	     -2.19230063	      1.31394879	      1.02722995	     -0.26081477	     -5.46772803	      4.04177957	     14.21770694	     -4.43682232	     13.54391464	    -18.14048570	      0.00000000	     30.10421372	     -3.35623573	    -15.52593498	    -31.89189683	      9.19361268	     -0.64898081	      0.00000000	     -7.79909238	     -2.04332366	      4.48304907
      5.43000000	     -4.11716383	     -0.07307738	     -2.23955430	      1.32032522	      1.02668379	     -0.26137447	     -6.00971813	      4.03565749	     14.21294770	     -4.32833072	     13.62034376	    -18.05711305	      0.00000000	     29.81534381	     -3.20344937	    -15.34880812	    -29.81877229	      9.23723652	     -0.27720100	      0.00000000	     -7.93763817	     -1.95897700	      4.63038982
      5.43500000	     -4.11516646	     -0.19659140	     -2.26459591	      1.32669066	      1.02595639	     -0.26192399	     -6.44527926	      4.09930315	     14.25122423	     -4.24859936	     13.69322155	    -17.96318831	      0.00000000	     29.62475971	     -3.10610668	    -15.06374671	    -27.76307111	      9.21593014	      0.15170786	      0.00000000	     -7.96029275	     -1.81052984	      4.73209431
      5.44000000	     -4.03487201	     -0.31466445	     -2.30157544	      1.33311756	      1.02531191	     -0.26253782	     -6.95526582	      4.15068213	     14.22616164	     -4.18532099	     13.76485524	    -17.83965954	      0.00000000	     29.31139877	     -2.99198849	    -14.75460491	    -25.66078243	      9.14060723	      0.48435011	      0.00000000	     -8.07860661	     -1.65771476	      4.87149492
      5.44500000	     -4.01086053	     -0.46228697	     -2.32998517	      1.33955756	      1.02454890	     -0.26316713	     -7.39687026	      4.23387626	     14.25810185	     -4.15383872	     13.84207947	    -17.70449272	      0.00000000	     29.04901899	     -2.90948931	    -14.37135948	    -23.57422175	      8.99664228	      0.82282606	      0.00000000	     -8.12781853	     -1.46731564	      4.98491961
      5.45000000	     -3.90720359	     -0.58739267	     -2.35401879	      1.34612132	      1.02387346	     -0.26377617	     -7.92294816	      4.29497421	     14.19818707	     -4.12663739	     13.93195370	    -17.53050164	      0.00000000	     28.66630170	     -2.80564241	    -13.95195710	    -21.47143665	      8.80838793	      1.14154468	      0.00000000	     -8.25927222	     -1.31919410	      5.09288015
      5.45500000	     -3.87267650	     -0.74878221	     -2.39605279	      1.35268479	      1.02307862	     -0.26443254	     -8.36071217	      4.39025011	     14.19318480	     -4.13600007	     14.00005416	    -17.35755582	      0.00000000	     28.34396934	     -2.74222621	    -13.45026439	    -19.38337954	      8.53252852	      1.30327353	      0.00000000	     -8.30670304	     -1.11096457	      5.22575217
      5.46000000	     -3.79294905	     -0.90065444	     -2.42822906	      1.35933178	      1.02232771	     -0.26506488	     -8.83962883	      4.47707922	     14.16078056	     -4.17078145	     14.10353187	    -17.13451364	      0.00000000	     27.94846917	     -2.67398812	    -12.85875355	    -17.30690154	      8.18512094	      1.39520127	      0.00000000	     -8.39763822	     -0.92700794	      5.33074207
      5.46500000	     -3.71433800	     -1.06195709	     -2.46943017	      1.36599739	      1.02155889	     -0.26571734	     -9.30010661	      4.57093222	     14.13528015	     -4.24481828	     14.21636118	    -16.87549138	      0.00000000	     27.53634938	     -2.62623640	    -12.19173178	    -15.25753623	      7.76995675	      1.35607555	      0.00000000	     -8.49037719	     -0.72310508	      5.44881102
      5.47000000	     -3.61806335	     -1.22195804	     -2.50957386	      1.37273599	      1.02079925	     -0.26635602	     -9.76569911	      4.66431642	     14.08954077	     -4.35731916	     14.35424798	    -16.56568769	      0.00000000	     27.08415408	     -2.58929330	    -11.43036505	    -13.24304801	      7.28882049	      1.16818395	      0.00000000	     -8.59415575	     -0.53119411	      5.54738630
      5.47500000	     -3.52321308	     -1.39189417	     -2.56430869	      1.37951135	      1.02002935	     -0.26696102	    -10.21392519	      4.76752212	     14.03447467	     -4.50520950	     14.50446184	    -16.21133065	      0.00000000	     26.61465781	     -2.58565650	    -10.58520944	    -11.27619854	      6.74354790	      0.81828125	      0.00000000	     -8.69503981	     -0.33021848	      5.65876954
      5.48000000	     -3.42437071	     -1.56954709	     -2.62593599	      1.38632005	      1.01925695	     -0.26754039	    -10.64569624	      4.87888436	     13.97181583	     -4.70103714	     14.67544471	    -15.80513138	      0.00000000	     26.12649749	     -2.61370931	     -9.65786053	     -9.37223954	      6.15152586	      0.31072607	      0.00000000	     -8.79658422	     -0.12109341	      5.77071450
      5.48500000	     -3.32368741	     -1.75259838	     -2.69109194	      1.39317687	      1.01848422	     -0.26808311	    -11.06033709	      4.99729182	     13.88872662	     -4.94156785	     14.86458480	    -15.34276218	      0.00000000	     25.62713229	     -2.67344351	     -8.66513714	     -7.54863972	      5.51525554	     -0.35180494	      0.00000000	     -8.89618847	      0.08484002	      5.87709291
